<svg xmlns="http://www.w3.org/2000/svg" viewBox="0 0 256 256" role="img" aria-label="Logo CallChef.ai">
  <defs>
    <linearGradient id="cc-gradient" x1="0" y1="0" x2="1" y2="1">
      <stop offset="0%" stop-color="#3B82F6"/>
      <stop offset="100%" stop-color="#06B6D4"/>
    </linearGradient>
  </defs>

  <!-- Zone de dessin (fond transparent) -->
  <rect width="256" height="256" fill="none"/>

  <!-- Toque tech (profil compact, géométrique et centré) -->
  <g fill="url(#cc-gradient)">
    <!-- Couronne compacte avec bords plus rectilignes -->
    <path d="M64 86c0-14 12-24 26-22 6-14 28-16 38-6 13-10 34-2 38 14 15-2 24 10 22 22-2 12-12 20-26 20H90c-18 0-26-11-26-28z"/>
    <!-- Bandeau net, parfaitement centré -->
    <rect x="72" y="118" width="112" height="12" rx="6"/>
  </g>

  <!-- Onde IA: sinusoïde régulière, amplitude constante, look tech -->
  <path d="M64 154c10 0 10 14 20 14s10-14 20-14 10 14 20 14 10-14 20-14 10 14 20 14 10-14 20-14" fill="none" stroke="url(#cc-gradient)" stroke-width="8" stroke-linecap="round" stroke-linejoin="round"/>

  <!-- Sourire minimal, centré -->
  <path d="M92 186c20 14 52 14 72 0" fill="none" stroke="url(#cc-gradient)" stroke-width="8" stroke-linecap="round"/>
</svg>
